*******************************************************************************
            Click - A 'Nam War Flick (2003) DVDRip - RadioResearch
*******************************************************************************

-------------------------------------------------------------------------------
                              General Information
-------------------------------------------------------------------------------
Type.................: Movie



Video Format.........: AVI
Video Bitrate........: 1445
Resolution...........: 640 x 480
Color................: 8 bit
FPS..................: 29.970
Source...............: DVD 4x3
Original Format......: NTSC
Genre................: War
IMDb Rating..........: 6.2
Movie Information....: http://www.imdb.com/title/tt0372214/

-------------------------------------------------------------------------------
                               Post Information
-------------------------------------------------------------------------------
Posted by............: RadioResearch
Posted on............: 5/9/2013

-------------------------------------------------------------------------------
                                 Release Notes
-------------------------------------------------------------------------------
SEEDBOX SUPPORTED!!

From four-time award winning Director and Cinematographer Steven Kahler comes 
the story of three people caught up in the turmoil of the Vietnam War.  When 
C.J. Parker steps on a landmine known as a "bouncing betty" that will only 
explode when he steps off, his only hope of rescue is a Eurasian prostitute, 
Martha, and Special Forces Green Beret Sarge, whose team is walking into a Viet 
Cong ambush.

You won't find this anywhere on the 'Net.  It's filmed in the same realistic 
look and feel of 84 Charlie Mopic.  If you're looking for multimillion dollar 
pyrotechnics and special effects, look elsewhere.  This is a good war flick, and 
I hope you take the time to enjoy it.  The weapons and clothing are all vintage 
and the jargon and radio comms add a lot of realism as well.

Enjoy!

RadioResearch

General
Complete name                            : G:Click - A 'Nam War Flick (2003) 
DVDRip - RadioResearchCLICK-{RadioResearch}.avi
Format                                   : AVI
Format/Info                              : Audio Video Interleave
File size                                : 773 MiB
Duration                                 : 1h 14mn
Overall bit rate                         : 1 445 Kbps
Movie name                               : CLICK_NEW_WORKS.Title2.DVDRip
Writing application                      : Lavf53.32.100
Original source form/Name                : CLICK_NEW_WORKS

Video
ID                                       : 0
Format                                   : MPEG-4 Visual
Format profile                           : Advanced Simple@L5
Format settings, BVOP                    : 2
Format settings, QPel                    : No
Format settings, GMC                     : No warppoints
Format settings, Matrix                  : Default (H.263)
Muxing mode                              : Packed bitstream
Codec ID                                 : XVID
Codec ID/Hint                            : XviD
Duration                                 : 1h 14mn
Bit rate                                 : 1 369 Kbps
Width                                    : 640 pixels
Height                                   : 480 pixels
Display aspect ratio                     : 4:3
Frame rate                               : 29.970 fps
Color space                              : YUV
Chroma subsampling                       : 4:2:0
Bit depth                                : 8 bits
Scan type                                : Progressive
Compression mode                         : Lossy
Bits/(Pixel*Frame)                       : 0.149
Stream size                              : 733 MiB (95%)
Writing library                          : XviD 64

Audio
ID                                       : 1
Format                                   : AC-3
Format/Info                              : Audio Coding 3
Mode extension                           : CM (complete main)
Format settings, Endianness              : Big
Codec ID                                 : 2000
Duration                                 : 1h 14mn
Bit rate mode                            : Constant
Bit rate                                 : 64.0 Kbps
Channel(s)                               : 2 channels
Channel positions                        : Front: L R
Sampling rate                            : 48.0 KHz
Bit depth                                : 16 bits
Compression mode                         : Lossy
Stream size                              : 34.2 MiB (4%)
Alignment                                : Aligned on interleaves
Interleave, duration                     : 32 ms (0.96 video frame)

AVI FILE MD5 HASH  028d73f6c07085cc9226416ac3442590



-------------------------------------------------------------------------------
Generated with Cool NFO Creator - http://fly.to/coolbeans
-------------------------------------------------------------------------------
